<?xml version="1.0" encoding="utf-8"?>
<!-- Generator: Adobe Illustrator 19.0.0, SVG Export Plug-In . SVG Version: 6.00 Build 0)  -->
<svg version="1.1" id="BB_x26_N_Primary_Identifier"
	 xmlns="http://www.w3.org/2000/svg" xmlns:xlink="http://www.w3.org/1999/xlink" x="0px" y="0px" viewBox="0 0 594 778"
	 style="enable-background:new 0 0 594 778;" xml:space="preserve">
<style type="text/css">
	.st0{fill:#F7A800;}
	.st1{fill:#002E6D;}
	.st2{fill:#FFFFFF;}
</style>
<g>
	<g>
		<polygon class="st0" points="84.2,297 9,684.2 261.1,769.5 527.7,458.7 585,57.1 		"/>
	</g>
	<g>
		<g>
			<g>
				<polygon class="st1" points="82.8,132.4 87.1,655.3 261.1,769.5 527.7,542.6 527.7,8.5 				"/>
			</g>
		</g>
	</g>
	<g>
		<path class="st2" d="M224.9,393.5h-85v-4.5l26.4-4.7V234.6l-26.4-4.8v-4.5h78.1c36.7,0,55.7,16.6,55.7,37.7
			c0,17.7-11.6,33.8-38,39.3v1.3c33.5,3.7,49.1,22.2,49.1,41.4C284.8,371,262.9,393.5,224.9,393.5z M214.4,302.2
			c20,0,31.9-12.9,31.9-35.9c0-25.1-16.9-34-33.8-34c-7.4,0-14.8,0.5-19.8,1.6v68.3H214.4z M213.3,309.6h-20.6v75.2
			c5,1,14,1.8,21.6,1.8c28,0,40.4-15,40.4-39.3C254.7,324.9,242.6,309.6,213.3,309.6z"/>
		<path class="st2" d="M389.9,301.8h-84.9v-4.5l26.4-4.7V143l-26.4-4.7v-4.5H383c36.6,0,55.6,16.6,55.6,37.7
			c0,17.7-11.6,33.8-38,39.3v1.3c33.5,3.7,49.1,22.2,49.1,41.4C449.7,279.4,427.9,301.8,389.9,301.8z M379.3,210.5
			c20,0,31.9-12.9,31.9-35.9c0-25.1-16.9-34.1-33.7-34.1c-7.4,0-14.8,0.6-19.8,1.6v68.3H379.3z M378.3,217.9h-20.6v75.2
			c5,1.1,14,1.9,21.6,1.9c27.9,0,40.4-15,40.4-39.3C419.7,233.2,407.6,217.9,378.3,217.9z"/>
	</g>
	<polygon class="st2" points="431,343.3 431,347.8 451.9,355 451.9,463.1 450.3,463.1 380,370.3 360.2,343.3 310.4,343.3 
		310.4,347.8 331.3,354.7 331.3,487.8 340,487.8 340,365.8 341.9,365.8 433.7,486.4 453.5,513.4 460.9,513.4 460.9,355 481.8,347.8 
		481.8,343.3 	"/>
	<path class="st2" d="M360.6,512.6v-3.8h-53.3v2.9l15.5,8.5l-25.2,45.3l-57.7-77.2c-9.6-13.5-13.4-21.6-13.4-31.3
		c0-16.1,8.2-25.5,20.4-25.5c12.9,0,22,11.7,22,27.2c0,5-0.6,9.7-2,14.4l13.5,12.9c8.6-8.7,12.5-17.2,12.5-25.9
		c0-17-14.3-35.6-42.7-35.6c-24.3,0-48.3,15.2-48.3,40.9c0,11.1,5,24.9,17,39.2l-10.6,5.3c-21.3,10.5-38,28.9-38,53.2
		c0,28.1,23.7,49.4,57.9,49.4c21.1,0,35.4-8.5,53.8-24c11.7,15.5,22.8,24,36.3,24c14.3,0,26.3-6.1,38-14.6l-1.2-3.2
		c-5,0.3-7.9,0.6-15.2,0.6c-13.5,0-22.2-4.7-38-23.7l38.9-51.8L360.6,512.6z M241.5,592.8c-24.9,0-43-14.1-43-36.6
		c0-17.5,9.4-32.1,19-41.8l5.3-5.3l55.3,74.6C266.4,589.3,255.3,592.8,241.5,592.8z"/>
</g>
</svg>
